<?xml version="1.0" encoding="UTF-8" standalone="no"?>
<svg
   xmlns:dc="http://purl.org/dc/elements/1.1/"
   xmlns:cc="http://creativecommons.org/ns#"
   xmlns:rdf="http://www.w3.org/1999/02/22-rdf-syntax-ns#"
   xmlns:svg="http://www.w3.org/2000/svg"
   xmlns="http://www.w3.org/2000/svg"
   xmlns:sodipodi="http://sodipodi.sourceforge.net/DTD/sodipodi-0.dtd"
   xmlns:inkscape="http://www.inkscape.org/namespaces/inkscape"
   viewBox="0 0 373.24096 76"
   version="1.1"
   id="svg26"
   sodipodi:docname="logo.svg"
   width="373.24097"
   height="76"
   inkscape:version="0.92.3 (2405546, 2018-03-11)">
  <metadata
     id="metadata30">
    <rdf:RDF>
      <cc:Work
         rdf:about="">
        <dc:format>image/svg+xml</dc:format>
        <dc:type
           rdf:resource="http://purl.org/dc/dcmitype/StillImage" />
        <dc:title>Full_White</dc:title>
      </cc:Work>
    </rdf:RDF>
  </metadata>
  <sodipodi:namedview
     pagecolor="#ffffff"
     bordercolor="#666666"
     borderopacity="1"
     objecttolerance="10"
     gridtolerance="10"
     guidetolerance="10"
     inkscape:pageopacity="0"
     inkscape:pageshadow="2"
     inkscape:window-width="1920"
     inkscape:window-height="986"
     id="namedview28"
     showgrid="false"
     fit-margin-top="0"
     fit-margin-left="0"
     fit-margin-right="0"
     fit-margin-bottom="0"
     inkscape:zoom="0.4607978"
     inkscape:cx="301.18809"
     inkscape:cy="61.069997"
     inkscape:window-x="0"
     inkscape:window-y="27"
     inkscape:window-maximized="1"
     inkscape:current-layer="svg26" />
  <defs
     id="defs4">
    <style
       id="style2">.cls-1{fill:#fff;}</style>
  </defs>
  <title
     id="title6">Full_White</title>
  <g
     id="Full_White"
     transform="matrix(0.62255794,0,0,0.62255794,-38.792776,-36.726567)">
    <g
       id="Logo_White">
      <g
         id="Infinity_Circle">
        <path
           class="cls-1"
           d="m 174.26,87.62 a 47,47 0 0 0 -90.26,18.3 49,49 0 0 0 0.92,9.46 38.82,38.82 0 0 1 -0.55,-6.59 38,38 0 0 1 73.18,-14.18 9.08,9.08 0 0 0 17.45,-3.43 9.29,9.29 0 0 0 -0.74,-3.56 z"
           id="path8"
           inkscape:connector-curvature="0"
           style="fill:#ffffff" />
        <path
           class="cls-1"
           d="m 147.52,90.07 a 39.66,39.66 0 0 1 5,4.27 38,38 0 0 1 -41.71,61.82 9.05,9.05 0 0 0 -9.92,14.74 10,10 0 0 0 3.06,2 47,47 0 0 0 50.94,-76.8 47.68,47.68 0 0 0 -7.37,-6.03 z"
           id="path10"
           inkscape:connector-curvature="0"
           style="fill:#ffffff" />
        <path
           class="cls-1"
           d="m 142.56,139.29 a 46.58,46.58 0 0 0 6,-7.37 39.7,39.7 0 0 1 -4.26,5.05 38,38 0 0 1 -61.81,-41.71 9,9 0 0 0 -14.73,-9.92 10.17,10.17 0 0 0 -2,3.06 47,47 0 0 0 76.8,50.89 z"
           id="path12"
           inkscape:connector-curvature="0"
           style="fill:#ffffff" />
      </g>
      <g
         id="Text">
        <rect
           id="Underline"
           class="cls-1"
           x="208.21001"
           y="161.25"
           width="65.610001"
           height="4.8299999"
           style="fill:#ffffff" />
        <path
           id="R"
           class="cls-1"
           d="m 647.21,127.7 c 8.94,-2.94 13.92,-9.84 13.92,-20.16 0,-13.26 -9,-20.88 -24.54,-20.88 H 613 v 62.16 h 6.9 v -19.34 h 16.46 c 1.42,0 2.85,-0.12 4.15,-0.18 l 12.81,19.52 h 8.52 z m -10.77,-5.13 h -16.59 v -29 h 16.59 c 11.33,0 17.79,4.82 17.79,14.29 0,9.71 -6.46,14.71 -17.79,14.71 z"
           inkscape:connector-curvature="0"
           style="fill:#ffffff" />
        <polygon
           id="M"
           class="cls-1"
           points="306.29,161.25 306.29,166.09 543.19,166.09 549.4,166.09 549.4,161.25 549.4,101.86 574.33,181.07 599.13,101.81 599.13,166.09 605.35,166.09 606.04,166.09 656.44,166.09 660.86,161.25 606.04,161.25 606.04,86.66 597.35,86.66 574.7,161.7 552,86.66 543.19,86.66 543.19,161.25 "
           style="fill:#ffffff" />
        <polygon
           id="E"
           class="cls-1"
           points="501.06,93.63 501.06,93.57 536.28,93.57 536.28,86.66 494.15,86.66 494.15,148.82 537.66,148.82 537.66,142.6 501.06,142.6 501.06,121.19 532.83,121.19 532.83,114.29 501.06,114.29 "
           style="fill:#ffffff" />
        <path
           id="n"
           class="cls-1"
           d="m 440.28,118.21 c 0,-9.33 5.4,-16.19 14.46,-16.31 7.8,0 12.47,5 12.47,13 v 34.61 h 18 v -40.06 h 0.31 c 0,-14.87 -9.09,-24.32 -23.23,-24.32 -9.93,0.12 -17.46,3.91 -22,11.8 V 86 h -18 v 63.54 h 18 z"
           inkscape:connector-curvature="0"
           style="fill:#ffffff" />
        <path
           id="e-2"
           data-name="e"
           class="cls-1"
           d="m 386.22,85.35 c -19.32,0 -32.68,12.94 -32.68,32.56 0,19.26 12.88,32.26 33.16,32.26 11.44,0 20.77,-4.09 27.15,-11.2 l -9.57,-9.69 A 22.51,22.51 0 0 1 388.2,136 c -8.18,0 -14.32,-4.75 -16.43,-12.76 h 45.57 c 1.5,-23.09 -8.85,-37.89 -31.12,-37.89 z m -14.81,26.86 c 1.39,-8.42 6.86,-13.84 14.87,-13.84 8.37,0 13.78,5.48 14,13.84 z"
           inkscape:connector-curvature="0"
           style="fill:#ffffff" />
        <path
           id="p"
           class="cls-1"
           d="m 319.18,85.37 c -8.5,0 -15.34,3.54 -19.8,9.91 V 86 h -18 v 86.3 h 18 v -32.08 c 4.52,6.37 11.42,9.91 20.16,9.91 17.6,0 29.14,-12.85 29.14,-32.08 0,-19.58 -11.9,-32.68 -29.5,-32.68 z M 315.26,135 c -9.33,0 -15.83,-7 -15.83,-17.58 0,-10.23 6.5,-17.45 15.83,-17.45 9.33,0 15.74,7.27 15.74,17.44 0,10.42 -6.41,17.59 -15.74,17.59 z"
           inkscape:connector-curvature="0"
           style="fill:#ffffff" />
        <path
           id="o"
           class="cls-1"
           d="m 242.67,85.33 c -20.41,0 -34.13,12.82 -34.13,32.32 0,19.32 13.72,32.45 34.13,32.45 20.41,0 34,-13.07 34,-32.45 0,-19.38 -13.67,-32.38 -34,-32.32 z m 0,50 c -9.45,0 -15.83,-7 -15.83,-17.46 0,-10.46 6.38,-17.51 15.83,-17.45 9.45,0.06 15.83,7 15.83,17.45 0,10.45 -6.5,17.48 -15.83,17.48 z"
           inkscape:connector-curvature="0"
           style="fill:#ffffff" />
      </g>
    </g>
  </g>
</svg>
